<svg width="392" height="37" viewBox="0 0 392 37" fill="none" xmlns="http://www.w3.org/2000/svg">
<path d="M18.7 36.35C15.4 36.35 12.3667 35.5833 9.6 34.05C6.86667 32.5167 4.68333 30.3833 3.05 27.65C1.45 24.8833 0.65 21.7833 0.65 18.35C0.65 14.9167 1.45 11.8333 3.05 9.1C4.68333 6.36667 6.86667 4.23333 9.6 2.7C12.3667 1.16667 15.4 0.399999 18.7 0.399999C22 0.399999 25.0167 1.16667 27.75 2.7C30.5167 4.23333 32.6833 6.36667 34.25 9.1C35.85 11.8333 36.65 14.9167 36.65 18.35C36.65 21.7833 35.85 24.8833 34.25 27.65C32.65 30.3833 30.4833 32.5167 27.75 34.05C25.0167 35.5833 22 36.35 18.7 36.35ZM18.7 28.55C21.5 28.55 23.7333 27.6167 25.4 25.75C27.1 23.8833 27.95 21.4167 27.95 18.35C27.95 15.25 27.1 12.7833 25.4 10.95C23.7333 9.08333 21.5 8.15 18.7 8.15C15.8667 8.15 13.6 9.06666 11.9 10.9C10.2333 12.7333 9.4 15.2167 9.4 18.35C9.4 21.45 10.2333 23.9333 11.9 25.8C13.6 27.6333 15.8667 28.55 18.7 28.55ZM59.3066 36L52.0066 22.75H49.9566V36H41.4066V0.899999H55.7566C58.5233 0.899999 60.8733 1.38333 62.8066 2.35C64.7733 3.31666 66.24 4.65 67.2066 6.35C68.1733 8.01666 68.6566 9.88333 68.6566 11.95C68.6566 14.2833 67.99 16.3667 66.6566 18.2C65.3566 20.0333 63.4233 21.3333 60.8566 22.1L68.9566 36H59.3066ZM49.9566 16.7H55.2566C56.8233 16.7 57.99 16.3167 58.7566 15.55C59.5566 14.7833 59.9566 13.7 59.9566 12.3C59.9566 10.9667 59.5566 9.91667 58.7566 9.15C57.99 8.38333 56.8233 8 55.2566 8H49.9566V16.7ZM113.774 0.899999V36H105.224V14.95L97.3738 36H90.4738L82.5738 14.9V36H74.0238V0.899999H84.1238L93.9738 25.2L103.724 0.899999H113.774ZM128.472 0.899999V36H119.922V0.899999H128.472ZM155.018 36L143.218 20.5V36H134.668V0.899999H143.218V16.3L154.918 0.899999H164.968L151.368 18.1L165.468 36H155.018ZM188.677 7.75V14.85H200.127V21.45H188.677V29.15H201.627V36H180.127V0.899999H201.627V7.75H188.677ZM228.678 36L221.528 25.25L215.228 36H205.528L216.778 18.15L205.278 0.899999H215.228L222.278 11.5L228.478 0.899999H238.178L227.028 18.6L238.628 36H228.678ZM269.67 12.2C269.67 14.2333 269.204 16.1 268.27 17.8C267.337 19.4667 265.904 20.8167 263.97 21.85C262.037 22.8833 259.637 23.4 256.77 23.4H251.47V36H242.92V0.899999H256.77C259.57 0.899999 261.937 1.38333 263.87 2.35C265.804 3.31666 267.254 4.65 268.22 6.35C269.187 8.05 269.67 10 269.67 12.2ZM256.12 16.6C257.754 16.6 258.97 16.2167 259.77 15.45C260.57 14.6833 260.97 13.6 260.97 12.2C260.97 10.8 260.57 9.71667 259.77 8.95C258.97 8.18333 257.754 7.8 256.12 7.8H251.47V16.6H256.12ZM282.671 29.4H293.871V36H274.121V0.899999H282.671V29.4ZM314.55 36.35C311.25 36.35 308.216 35.5833 305.45 34.05C302.716 32.5167 300.533 30.3833 298.9 27.65C297.3 24.8833 296.5 21.7833 296.5 18.35C296.5 14.9167 297.3 11.8333 298.9 9.1C300.533 6.36667 302.716 4.23333 305.45 2.7C308.216 1.16667 311.25 0.399999 314.55 0.399999C317.85 0.399999 320.866 1.16667 323.6 2.7C326.366 4.23333 328.533 6.36667 330.1 9.1C331.7 11.8333 332.5 14.9167 332.5 18.35C332.5 21.7833 331.7 24.8833 330.1 27.65C328.5 30.3833 326.333 32.5167 323.6 34.05C320.866 35.5833 317.85 36.35 314.55 36.35ZM314.55 28.55C317.35 28.55 319.583 27.6167 321.25 25.75C322.95 23.8833 323.8 21.4167 323.8 18.35C323.8 15.25 322.95 12.7833 321.25 10.95C319.583 9.08333 317.35 8.15 314.55 8.15C311.716 8.15 309.45 9.06666 307.75 10.9C306.083 12.7333 305.25 15.2167 305.25 18.35C305.25 21.45 306.083 23.9333 307.75 25.8C309.45 27.6333 311.716 28.55 314.55 28.55ZM355.156 36L347.856 22.75H345.806V36H337.256V0.899999H351.606C354.373 0.899999 356.723 1.38333 358.656 2.35C360.623 3.31666 362.09 4.65 363.056 6.35C364.023 8.01666 364.506 9.88333 364.506 11.95C364.506 14.2833 363.84 16.3667 362.506 18.2C361.206 20.0333 359.273 21.3333 356.706 22.1L364.806 36H355.156ZM345.806 16.7H351.106C352.673 16.7 353.84 16.3167 354.606 15.55C355.406 14.7833 355.806 13.7 355.806 12.3C355.806 10.9667 355.406 9.91667 354.606 9.15C353.84 8.38333 352.673 8 351.106 8H345.806V16.7ZM378.423 7.75V14.85H389.873V21.45H378.423V29.15H391.373V36H369.873V0.899999H391.373V7.75H378.423Z" fill="#E2DC00"/>
</svg>
