<svg width="266" height="24" viewBox="0 0 266 24" fill="none" xmlns="http://www.w3.org/2000/svg">
<path d="M8.65625 1.94C10.8763 1.94 12.8163 2.38 14.4763 3.26C16.1363 4.14 17.4163 5.38 18.3163 6.98C19.2363 8.56 19.6963 10.39 19.6963 12.47C19.6963 14.53 19.2363 16.36 18.3163 17.96C17.4163 19.56 16.1263 20.8 14.4463 21.68C12.7863 22.56 10.8563 23 8.65625 23H0.76625V1.94H8.65625ZM8.32625 18.56C10.2663 18.56 11.7763 18.03 12.8563 16.97C13.9363 15.91 14.4763 14.41 14.4763 12.47C14.4763 10.53 13.9363 9.02 12.8563 7.94C11.7763 6.86 10.2663 6.32 8.32625 6.32H5.89625V18.56H8.32625ZM30.1831 23.24C28.5431 23.24 27.0631 22.89 25.7431 22.19C24.4431 21.49 23.4131 20.49 22.6531 19.19C21.9131 17.89 21.5431 16.37 21.5431 14.63C21.5431 12.91 21.9231 11.4 22.6831 10.1C23.4431 8.78 24.4831 7.77 25.8031 7.07C27.1231 6.37 28.6031 6.02 30.2431 6.02C31.8831 6.02 33.3631 6.37 34.6831 7.07C36.0031 7.77 37.0431 8.78 37.8031 10.1C38.5631 11.4 38.9431 12.91 38.9431 14.63C38.9431 16.35 38.5531 17.87 37.7731 19.19C37.0131 20.49 35.9631 21.49 34.6231 22.19C33.3031 22.89 31.8231 23.24 30.1831 23.24ZM30.1831 18.8C31.1631 18.8 31.9931 18.44 32.6731 17.72C33.3731 17 33.7231 15.97 33.7231 14.63C33.7231 13.29 33.3831 12.26 32.7031 11.54C32.0431 10.82 31.2231 10.46 30.2431 10.46C29.2431 10.46 28.4131 10.82 27.7531 11.54C27.0931 12.24 26.7631 13.27 26.7631 14.63C26.7631 15.97 27.0831 17 27.7231 17.72C28.3831 18.44 29.2031 18.8 30.1831 18.8ZM65.6947 6.26L61.1647 23H55.4947L52.8547 12.14L50.1247 23H44.4847L39.9247 6.26H45.0547L47.4247 18.23L50.2447 6.26H55.6747L58.5247 18.17L60.8647 6.26H65.6947ZM77.851 6.08C79.811 6.08 81.371 6.72 82.531 8C83.711 9.26 84.301 11 84.301 13.22V23H79.201V13.91C79.201 12.79 78.911 11.92 78.331 11.3C77.751 10.68 76.971 10.37 75.991 10.37C75.011 10.37 74.231 10.68 73.651 11.3C73.071 11.92 72.781 12.79 72.781 13.91V23H67.651V6.26H72.781V8.48C73.301 7.74 74.001 7.16 74.881 6.74C75.761 6.3 76.751 6.08 77.851 6.08ZM92.9959 0.8V23H87.8659V0.8H92.9959ZM104.334 23.24C102.694 23.24 101.214 22.89 99.8935 22.19C98.5935 21.49 97.5635 20.49 96.8035 19.19C96.0635 17.89 95.6935 16.37 95.6935 14.63C95.6935 12.91 96.0735 11.4 96.8335 10.1C97.5935 8.78 98.6335 7.77 99.9535 7.07C101.274 6.37 102.754 6.02 104.394 6.02C106.034 6.02 107.514 6.37 108.834 7.07C110.154 7.77 111.194 8.78 111.954 10.1C112.714 11.4 113.094 12.91 113.094 14.63C113.094 16.35 112.704 17.87 111.924 19.19C111.164 20.49 110.114 21.49 108.774 22.19C107.454 22.89 105.974 23.24 104.334 23.24ZM104.334 18.8C105.314 18.8 106.144 18.44 106.824 17.72C107.524 17 107.874 15.97 107.874 14.63C107.874 13.29 107.534 12.26 106.854 11.54C106.194 10.82 105.374 10.46 104.394 10.46C103.394 10.46 102.564 10.82 101.904 11.54C101.244 12.24 100.914 13.27 100.914 14.63C100.914 15.97 101.234 17 101.874 17.72C102.534 18.44 103.354 18.8 104.334 18.8ZM114.795 14.6C114.795 12.88 115.115 11.37 115.755 10.07C116.415 8.77 117.305 7.77 118.425 7.07C119.545 6.37 120.795 6.02 122.175 6.02C123.355 6.02 124.385 6.26 125.265 6.74C126.165 7.22 126.855 7.85 127.335 8.63V6.26H132.465V23H127.335V20.63C126.835 21.41 126.135 22.04 125.235 22.52C124.355 23 123.325 23.24 122.145 23.24C120.785 23.24 119.545 22.89 118.425 22.19C117.305 21.47 116.415 20.46 115.755 19.16C115.115 17.84 114.795 16.32 114.795 14.6ZM127.335 14.63C127.335 13.35 126.975 12.34 126.255 11.6C125.555 10.86 124.695 10.49 123.675 10.49C122.655 10.49 121.785 10.86 121.065 11.6C120.365 12.32 120.015 13.32 120.015 14.6C120.015 15.88 120.365 16.9 121.065 17.66C121.785 18.4 122.655 18.77 123.675 18.77C124.695 18.77 125.555 18.4 126.255 17.66C126.975 16.92 127.335 15.91 127.335 14.63ZM135.156 14.6C135.156 12.88 135.476 11.37 136.116 10.07C136.776 8.77 137.666 7.77 138.786 7.07C139.906 6.37 141.156 6.02 142.536 6.02C143.636 6.02 144.636 6.25 145.536 6.71C146.456 7.17 147.176 7.79 147.696 8.57V0.8H152.826V23H147.696V20.6C147.216 21.4 146.526 22.04 145.626 22.52C144.746 23 143.716 23.24 142.536 23.24C141.156 23.24 139.906 22.89 138.786 22.19C137.666 21.47 136.776 20.46 136.116 19.16C135.476 17.84 135.156 16.32 135.156 14.6ZM147.696 14.63C147.696 13.35 147.336 12.34 146.616 11.6C145.916 10.86 145.056 10.49 144.036 10.49C143.016 10.49 142.146 10.86 141.426 11.6C140.726 12.32 140.376 13.32 140.376 14.6C140.376 15.88 140.726 16.9 141.426 17.66C142.146 18.4 143.016 18.77 144.036 18.77C145.056 18.77 145.916 18.4 146.616 17.66C147.336 16.92 147.696 15.91 147.696 14.63ZM162.025 12.44C162.025 10.36 162.475 8.51 163.375 6.89C164.275 5.25 165.525 3.98 167.125 3.08C168.745 2.16 170.575 1.7 172.615 1.7C175.115 1.7 177.255 2.36 179.035 3.68C180.815 5 182.005 6.8 182.605 9.08H176.965C176.545 8.2 175.945 7.53 175.165 7.07C174.405 6.61 173.535 6.38 172.555 6.38C170.975 6.38 169.695 6.93 168.715 8.03C167.735 9.13 167.245 10.6 167.245 12.44C167.245 14.28 167.735 15.75 168.715 16.85C169.695 17.95 170.975 18.5 172.555 18.5C173.535 18.5 174.405 18.27 175.165 17.81C175.945 17.35 176.545 16.68 176.965 15.8H182.605C182.005 18.08 180.815 19.88 179.035 21.2C177.255 22.5 175.115 23.15 172.615 23.15C170.575 23.15 168.745 22.7 167.125 21.8C165.525 20.88 164.275 19.61 163.375 17.99C162.475 16.37 162.025 14.52 162.025 12.44ZM201.527 14.36C201.527 14.84 201.497 15.34 201.437 15.86H189.827C189.907 16.9 190.237 17.7 190.817 18.26C191.417 18.8 192.147 19.07 193.007 19.07C194.287 19.07 195.177 18.53 195.677 17.45H201.137C200.857 18.55 200.347 19.54 199.607 20.42C198.887 21.3 197.977 21.99 196.877 22.49C195.777 22.99 194.547 23.24 193.187 23.24C191.547 23.24 190.087 22.89 188.807 22.19C187.527 21.49 186.527 20.49 185.807 19.19C185.087 17.89 184.727 16.37 184.727 14.63C184.727 12.89 185.077 11.37 185.777 10.07C186.497 8.77 187.497 7.77 188.777 7.07C190.057 6.37 191.527 6.02 193.187 6.02C194.807 6.02 196.247 6.36 197.507 7.04C198.767 7.72 199.747 8.69 200.447 9.95C201.167 11.21 201.527 12.68 201.527 14.36ZM196.277 13.01C196.277 12.13 195.977 11.43 195.377 10.91C194.777 10.39 194.027 10.13 193.127 10.13C192.267 10.13 191.537 10.38 190.937 10.88C190.357 11.38 189.997 12.09 189.857 13.01H196.277ZM214.433 6.08C216.393 6.08 217.953 6.72 219.113 8C220.293 9.26 220.883 11 220.883 13.22V23H215.783V13.91C215.783 12.79 215.493 11.92 214.913 11.3C214.333 10.68 213.553 10.37 212.573 10.37C211.593 10.37 210.813 10.68 210.233 11.3C209.653 11.92 209.363 12.79 209.363 13.91V23H204.233V6.26H209.363V8.48C209.883 7.74 210.583 7.16 211.463 6.74C212.343 6.3 213.333 6.08 214.433 6.08ZM233.778 18.65V23H231.168C229.308 23 227.858 22.55 226.818 21.65C225.778 20.73 225.258 19.24 225.258 17.18V10.52H223.218V6.26H225.258V2.18H230.388V6.26H233.748V10.52H230.388V17.24C230.388 17.74 230.508 18.1 230.748 18.32C230.988 18.54 231.388 18.65 231.948 18.65H233.778ZM252.415 14.36C252.415 14.84 252.385 15.34 252.325 15.86H240.715C240.795 16.9 241.125 17.7 241.705 18.26C242.305 18.8 243.035 19.07 243.895 19.07C245.175 19.07 246.065 18.53 246.565 17.45H252.025C251.745 18.55 251.235 19.54 250.495 20.42C249.775 21.3 248.865 21.99 247.765 22.49C246.665 22.99 245.435 23.24 244.075 23.24C242.435 23.24 240.975 22.89 239.695 22.19C238.415 21.49 237.415 20.49 236.695 19.19C235.975 17.89 235.615 16.37 235.615 14.63C235.615 12.89 235.965 11.37 236.665 10.07C237.385 8.77 238.385 7.77 239.665 7.07C240.945 6.37 242.415 6.02 244.075 6.02C245.695 6.02 247.135 6.36 248.395 7.04C249.655 7.72 250.635 8.69 251.335 9.95C252.055 11.21 252.415 12.68 252.415 14.36ZM247.165 13.01C247.165 12.13 246.865 11.43 246.265 10.91C245.665 10.39 244.915 10.13 244.015 10.13C243.155 10.13 242.425 10.38 241.825 10.88C241.245 11.38 240.885 12.09 240.745 13.01H247.165ZM260.252 9.05C260.852 8.13 261.602 7.41 262.502 6.89C263.402 6.35 264.402 6.08 265.502 6.08V11.51H264.092C262.812 11.51 261.852 11.79 261.212 12.35C260.572 12.89 260.252 13.85 260.252 15.23V23H255.122V6.26H260.252V9.05Z" fill="#E2DC00"/>
</svg>
